<?xml version="1.0" standalone="no"?>
<!DOCTYPE svg PUBLIC "-//W3C//DTD SVG 20010904//EN"
 "http://www.w3.org/TR/2001/REC-SVG-20010904/DTD/svg10.dtd">
<svg version="1.0" xmlns="http://www.w3.org/2000/svg"
 width="700.000000pt" height="700.000000pt" viewBox="0 0 700.000000 700.000000"
 preserveAspectRatio="xMidYMid meet">
<metadata>
Created by potrace 1.11, written by Peter Selinger 2001-2013
</metadata>
<g transform="translate(0.000000,700.000000) scale(0.100000,-0.100000)"
fill="#000000" stroke="none">
<path d="M768 6092 l-68 -3 0 -2589 0 -2590 23 0 c30 -1 5459 -1 5525 -1 l52
1 -2 2591 -3 2592 -780 -1 c-429 -1 -790 -1 -803 -1 -12 -1 -24 -7 -27 -13 -2
-7 -30 -96 -63 -198 -33 -102 -94 -293 -137 -425 -42 -132 -87 -271 -100 -310
-13 -38 -60 -185 -105 -325 -45 -140 -85 -266 -90 -280 -5 -14 -52 -160 -105
-325 -53 -165 -121 -374 -150 -465 -30 -91 -97 -300 -150 -465 -53 -165 -121
-374 -150 -465 -30 -91 -62 -192 -73 -224 -10 -33 -23 -61 -28 -63 -5 -2 -28
52 -51 119 -23 68 -66 195 -97 283 -66 194 -316 927 -356 1045 -16 47 -79 231
-140 410 -61 179 -124 363 -140 410 -37 110 -259 760 -311 910 -21 63 -41 122
-43 130 -13 44 -76 221 -84 236 -9 15 -62 17 -743 18 -404 0 -764 0 -801 -2z"/>
</g>
</svg>
