<?xml version="1.0" encoding="utf-8"?>
<!-- Generator: Adobe Illustrator 16.0.0, SVG Export Plug-In . SVG Version: 6.00 Build 0)  -->
<!DOCTYPE svg PUBLIC "-//W3C//DTD SVG 1.1//EN" "http://www.w3.org/Graphics/SVG/1.1/DTD/svg11.dtd">
<svg version="1.1" id="Layer_1" xmlns="http://www.w3.org/2000/svg" xmlns:xlink="http://www.w3.org/1999/xlink" x="0px" y="0px"
	 width="235px" height="480px" viewBox="0 0 235 480" enable-background="new 0 0 235 480" xml:space="preserve">
<path fill="#FFFFFF" d="M205.58,480H29.432C13.206,480,0,466.829,0,450.596V29.407C0,13.199,13.206,0,29.432,0H205.58
	C221.797,0,235,13.199,235,29.407v421.188C235,466.829,221.797,480,205.58,480z M29.432,0.963
	c-15.685,0-28.444,12.777-28.444,28.444v421.188c0,15.69,12.759,28.444,28.444,28.444H205.58c15.673,0,28.434-12.754,28.434-28.444
	V29.407c0-15.667-12.761-28.444-28.434-28.444H29.432z"/>
<path fill="#FFFFFF" d="M117.5,468.233c-8.601,0-15.587-6.979-15.587-15.592c0-8.583,6.986-15.565,15.587-15.565
	s15.6,6.982,15.6,15.565C133.1,461.254,126.101,468.233,117.5,468.233z M117.5,438.089c-8.034,0-14.573,6.535-14.573,14.553
	c0,8.044,6.539,14.581,14.573,14.581s14.576-6.537,14.576-14.581C132.076,444.624,125.534,438.089,117.5,438.089z"/>
<path fill="#FFFFFF" d="M131.78,33.798h-28.559c-1.445,0-2.615-1.16-2.615-2.615c0-1.433,1.17-2.592,2.615-2.592h28.559
	c1.443,0,2.616,1.159,2.616,2.592C134.396,32.638,133.224,33.798,131.78,33.798z M103.222,29.528c-0.925,0-1.678,0.741-1.678,1.655
	c0,0.938,0.753,1.678,1.678,1.678h28.559c0.926,0,1.678-0.74,1.678-1.678c0-0.914-0.752-1.655-1.678-1.655H103.222z"/>
<path fill="#FFFFFF" d="M87.794,35.005c-2.109,0-3.824-1.725-3.824-3.822c0-2.097,1.715-3.799,3.824-3.799
	c2.098,0,3.814,1.702,3.814,3.799C91.608,33.281,89.892,35.005,87.794,35.005z M87.794,28.419c-1.541,0-2.787,1.233-2.787,2.764
	c0,1.554,1.246,2.787,2.787,2.787c1.531,0,2.777-1.233,2.777-2.787C90.571,29.652,89.325,28.419,87.794,28.419z"/>
<path fill="#FFFFFF" d="M117.5,22.151c-1.507,0-2.728-1.207-2.728-2.713c0-1.503,1.221-2.738,2.728-2.738s2.728,1.235,2.728,2.738
	C120.228,20.944,119.007,22.151,117.5,22.151z M117.5,17.736c-0.925,0-1.69,0.766-1.69,1.702c0,0.938,0.766,1.678,1.69,1.678
	s1.69-0.74,1.69-1.678C119.19,18.502,118.425,17.736,117.5,17.736z"/>
</svg>
