<?xml version="1.0" encoding="utf-8"?>
<!-- Generator: Adobe Illustrator 16.0.0, SVG Export Plug-In . SVG Version: 6.00 Build 0)  -->
<!DOCTYPE svg PUBLIC "-//W3C//DTD SVG 1.1//EN" "http://www.w3.org/Graphics/SVG/1.1/DTD/svg11.dtd">
<svg version="1.1" id="Layer_1" xmlns="http://www.w3.org/2000/svg" xmlns:xlink="http://www.w3.org/1999/xlink" x="0px" y="0px"
	 width="216px" height="80px" viewBox="0 0 216 80" enable-background="new 0 0 216 80" xml:space="preserve">
<g>
	<path fill="none" d="M10.934,5.68c0.664,0.2,1.252,0.436,1.764,0.708l1.08-3c-0.128-0.08-0.34-0.192-0.636-0.336
		c-0.296-0.144-0.672-0.284-1.128-0.42c-0.456-0.136-1-0.256-1.632-0.36c-0.632-0.104-1.34-0.156-2.124-0.156
		c-1.152,0-2.236,0.192-3.252,0.576c-1.016,0.384-1.9,0.948-2.652,1.692C1.602,5.128,1.01,6.036,0.578,7.108
		C0.146,8.18-0.07,9.412-0.07,10.804c0,1.376,0.195,2.6,0.588,3.672c0.392,1.072,0.948,1.976,1.668,2.712
		c0.72,0.736,1.588,1.296,2.604,1.68c1.016,0.384,2.148,0.576,3.396,0.576c1.456,0,2.68-0.1,3.672-0.3
		c0.992-0.2,1.712-0.388,2.16-0.564v-8.232h-3.744v5.784c-0.224,0.048-0.484,0.081-0.78,0.096c-0.296,0.016-0.652,0.024-1.068,0.024
		c-0.768,0-1.44-0.132-2.016-0.396C5.833,15.592,5.354,15.22,4.97,14.74c-0.384-0.48-0.672-1.052-0.864-1.716
		c-0.192-0.664-0.288-1.404-0.288-2.22c0-1.68,0.388-3.004,1.164-3.972C5.757,5.864,7.018,5.38,8.762,5.38
		C9.545,5.38,10.27,5.48,10.934,5.68z"/>
	<path fill="none" d="M28.609,10.084c-0.304-0.816-0.729-1.512-1.272-2.088c-0.544-0.576-1.196-1.024-1.956-1.344
		c-0.76-0.32-1.596-0.48-2.508-0.48c-0.896,0-1.724,0.16-2.484,0.48c-0.76,0.32-1.416,0.768-1.968,1.344
		c-0.552,0.576-0.984,1.272-1.296,2.088s-0.468,1.72-0.468,2.712c0,0.992,0.152,1.9,0.456,2.724
		c0.304,0.824,0.728,1.528,1.272,2.112c0.544,0.584,1.196,1.036,1.956,1.356c0.76,0.32,1.604,0.48,2.532,0.48
		c0.944,0,1.796-0.16,2.556-0.48c0.76-0.32,1.412-0.771,1.956-1.356c0.544-0.584,0.96-1.288,1.248-2.112
		c0.288-0.824,0.432-1.732,0.432-2.724C29.065,11.804,28.913,10.9,28.609,10.084z M24.757,15.424
		c-0.44,0.648-1.068,0.972-1.884,0.972s-1.448-0.324-1.896-0.972c-0.448-0.648-0.672-1.524-0.672-2.628s0.224-1.972,0.672-2.604
		c0.448-0.632,1.08-0.948,1.896-0.948s1.444,0.316,1.884,0.948c0.44,0.632,0.66,1.5,0.66,2.604S25.197,14.776,24.757,15.424z"/>
	<path fill="none" d="M37.369,16.42c-0.432-0.032-0.776-0.104-1.032-0.216c-0.256-0.112-0.453-0.256-0.588-0.432
		c-0.136-0.176-0.228-0.392-0.276-0.648c-0.048-0.256-0.072-0.544-0.072-0.864V0.508l-3.576,0.576V14.98
		c0,0.672,0.068,1.276,0.204,1.812c0.136,0.536,0.392,0.992,0.768,1.368c0.375,0.376,0.888,0.668,1.536,0.876
		c0.648,0.208,1.492,0.32,2.532,0.336L37.369,16.42z"/>
	<path fill="none" d="M45.001,9.268c0.368,0,0.732,0.048,1.092,0.144c0.36,0.096,0.652,0.216,0.876,0.36v6.504
		c-0.176,0.032-0.4,0.06-0.672,0.084s-0.568,0.036-0.888,0.036c-0.976,0-1.712-0.336-2.208-1.008
		c-0.496-0.672-0.744-1.56-0.744-2.664C42.457,10.42,43.305,9.268,45.001,9.268L45.001,9.268z M50.545,0.508l-3.576,0.576v5.712
		c-0.4-0.176-0.796-0.312-1.188-0.408c-0.393-0.096-0.836-0.144-1.332-0.144c-0.896,0-1.692,0.152-2.388,0.456
		c-0.696,0.304-1.284,0.744-1.764,1.32c-0.48,0.576-0.848,1.276-1.104,2.1c-0.256,0.824-0.384,1.748-0.384,2.772
		c0,1.008,0.148,1.916,0.444,2.724s0.724,1.496,1.284,2.064c0.56,0.568,1.248,1.004,2.064,1.308s1.744,0.456,2.784,0.456
		c0.432,0,0.884-0.02,1.356-0.06c0.472-0.04,0.936-0.092,1.392-0.156c0.456-0.064,0.892-0.14,1.308-0.228s0.784-0.18,1.104-0.276
		V0.508z"/>
	<path fill="none" d="M60.049,19.132h1.56V8.236c0.144-0.063,0.476-0.136,0.996-0.216S63.76,7.9,64.513,7.9
		c0.672,0,1.212,0.1,1.62,0.3c0.408,0.2,0.724,0.496,0.948,0.888c0.224,0.393,0.372,0.888,0.444,1.488
		c0.072,0.6,0.108,1.308,0.108,2.124v6.432h1.56v-7.056c0-0.576-0.036-1.124-0.108-1.644c-0.072-0.52-0.18-0.988-0.324-1.404
		c0.08-0.063,0.212-0.16,0.396-0.288c0.184-0.127,0.42-0.255,0.708-0.384c0.288-0.128,0.627-0.236,1.02-0.324
		C71.276,7.944,71.712,7.9,72.192,7.9c0.64,0,1.16,0.1,1.56,0.3s0.708,0.496,0.924,0.888c0.216,0.393,0.36,0.888,0.432,1.488
		c0.072,0.6,0.108,1.308,0.108,2.124v6.432h1.56v-6.936c0-0.832-0.056-1.6-0.168-2.304S76.28,8.584,75.96,8.08
		s-0.772-0.896-1.356-1.176c-0.584-0.28-1.348-0.42-2.292-0.42c-0.576,0-1.1,0.056-1.572,0.168C70.269,6.764,69.856,6.9,69.504,7.06
		c-0.352,0.16-0.644,0.316-0.876,0.468c-0.232,0.152-0.388,0.26-0.468,0.324c-0.704-0.912-1.84-1.368-3.408-1.368
		c-1.184,0-2.148,0.081-2.892,0.24c-0.744,0.16-1.348,0.304-1.812,0.432V19.132z"/>
	<path fill="none" d="M89.592,19.384c0.544-0.072,1.024-0.164,1.44-0.276s0.76-0.22,1.032-0.324
		c0.272-0.104,0.464-0.196,0.576-0.276l-0.456-1.392c-0.368,0.208-0.908,0.412-1.62,0.612c-0.712,0.2-1.596,0.3-2.652,0.3
		c-0.96,0-1.812-0.168-2.556-0.504s-1.372-0.816-1.884-1.44c-0.513-0.624-0.9-1.38-1.164-2.268
		c-0.264-0.888-0.396-1.884-0.396-2.988c0-1.072,0.132-2.048,0.396-2.928c0.264-0.879,0.66-1.64,1.188-2.28
		c0.528-0.64,1.18-1.136,1.956-1.488c0.776-0.352,1.684-0.528,2.724-0.528c0.912,0,1.676,0.116,2.292,0.348s1.124,0.468,1.524,0.708
		l0.528-1.416c-0.144-0.096-0.353-0.204-0.624-0.324c-0.272-0.12-0.6-0.24-0.984-0.36c-0.384-0.12-0.832-0.22-1.344-0.3
		c-0.512-0.08-1.08-0.12-1.704-0.12c-1.008,0-1.976,0.188-2.904,0.564c-0.928,0.376-1.744,0.932-2.448,1.668
		s-1.268,1.644-1.692,2.724c-0.424,1.08-0.636,2.316-0.636,3.708c0,1.392,0.195,2.628,0.588,3.708
		c0.392,1.08,0.928,1.988,1.608,2.724c0.68,0.736,1.48,1.296,2.4,1.68s1.916,0.576,2.988,0.576
		C88.44,19.492,89.048,19.456,89.592,19.384z"/>
	<path fill="none" d="M105.54,10.276c-0.28-0.8-0.672-1.484-1.176-2.052s-1.101-1.008-1.788-1.32
		c-0.688-0.312-1.448-0.468-2.28-0.468c-0.833,0-1.592,0.156-2.28,0.468s-1.284,0.752-1.788,1.32
		c-0.504,0.568-0.896,1.252-1.176,2.052c-0.28,0.8-0.42,1.688-0.42,2.664c0,0.976,0.14,1.864,0.42,2.664
		c0.28,0.8,0.672,1.48,1.176,2.04c0.504,0.56,1.1,0.996,1.788,1.308s1.448,0.468,2.28,0.468c0.832,0,1.592-0.156,2.28-0.468
		c0.688-0.312,1.284-0.748,1.788-1.308s0.896-1.24,1.176-2.04c0.28-0.8,0.42-1.688,0.42-2.664
		C105.96,11.964,105.82,11.076,105.54,10.276z M103.224,16.636c-0.72,0.912-1.696,1.368-2.928,1.368
		c-1.232,0-2.208-0.456-2.928-1.368c-0.72-0.912-1.08-2.144-1.08-3.696c0-1.552,0.36-2.788,1.08-3.708
		c0.72-0.92,1.696-1.38,2.928-1.38c1.232,0,2.208,0.46,2.928,1.38c0.72,0.92,1.08,2.156,1.08,3.708
		C104.304,14.492,103.944,15.724,103.224,16.636z"/>
	<path fill="none" d="M109.344,19.132h1.56V8.236c0.145-0.063,0.477-0.136,0.996-0.216c0.521-0.08,1.156-0.12,1.908-0.12
		c0.672,0,1.213,0.1,1.62,0.3c0.408,0.2,0.724,0.496,0.948,0.888c0.224,0.393,0.372,0.888,0.443,1.488
		c0.072,0.6,0.108,1.308,0.108,2.124v6.432h1.56v-7.056c0-0.576-0.035-1.124-0.107-1.644s-0.18-0.988-0.324-1.404
		c0.08-0.063,0.212-0.16,0.396-0.288c0.184-0.127,0.42-0.255,0.708-0.384c0.288-0.128,0.628-0.236,1.02-0.324
		s0.828-0.132,1.308-0.132c0.641,0,1.16,0.1,1.561,0.3s0.708,0.496,0.924,0.888c0.217,0.393,0.36,0.888,0.432,1.488
		c0.072,0.6,0.108,1.308,0.108,2.124v6.432h1.56v-6.936c0-0.832-0.056-1.6-0.168-2.304c-0.111-0.704-0.328-1.308-0.647-1.812
		c-0.32-0.504-0.772-0.896-1.356-1.176c-0.584-0.28-1.348-0.42-2.291-0.42c-0.576,0-1.101,0.056-1.572,0.168
		c-0.473,0.112-0.885,0.249-1.236,0.408c-0.352,0.16-0.645,0.316-0.876,0.468c-0.231,0.152-0.388,0.26-0.468,0.324
		c-0.704-0.912-1.84-1.368-3.408-1.368c-1.184,0-2.148,0.081-2.893,0.24c-0.743,0.16-1.348,0.304-1.812,0.432V19.132z"/>
	<path fill="none" d="M130.056,19.132h1.561V8.236c0.144-0.063,0.476-0.136,0.996-0.216c0.52-0.08,1.155-0.12,1.907-0.12
		c0.672,0,1.212,0.1,1.62,0.3s0.724,0.496,0.948,0.888c0.224,0.393,0.372,0.888,0.444,1.488c0.071,0.6,0.107,1.308,0.107,2.124
		v6.432h1.561v-7.056c0-0.576-0.037-1.124-0.108-1.644c-0.072-0.52-0.181-0.988-0.324-1.404c0.08-0.063,0.212-0.16,0.396-0.288
		c0.185-0.127,0.42-0.255,0.709-0.384c0.287-0.128,0.627-0.236,1.02-0.324S141.72,7.9,142.2,7.9c0.639,0,1.159,0.1,1.56,0.3
		c0.399,0.2,0.708,0.496,0.924,0.888c0.216,0.393,0.36,0.888,0.433,1.488c0.071,0.6,0.107,1.308,0.107,2.124v6.432h1.561v-6.936
		c0-0.832-0.057-1.6-0.168-2.304c-0.113-0.704-0.328-1.308-0.648-1.812s-0.772-0.896-1.355-1.176c-0.585-0.28-1.349-0.42-2.293-0.42
		c-0.576,0-1.1,0.056-1.572,0.168c-0.472,0.112-0.884,0.249-1.235,0.408c-0.353,0.16-0.645,0.316-0.876,0.468
		c-0.232,0.152-0.389,0.26-0.469,0.324c-0.703-0.912-1.84-1.368-3.407-1.368c-1.185,0-2.147,0.081-2.892,0.24
		c-0.744,0.16-1.349,0.304-1.813,0.432V19.132z"/>
	<path fill="none" d="M150.359,15.52c0.224,0.792,0.584,1.476,1.08,2.052c0.495,0.576,1.128,1.024,1.896,1.344
		c0.769,0.32,1.696,0.48,2.785,0.48c0.831,0,1.555-0.088,2.172-0.264c0.615-0.176,1.035-0.328,1.26-0.456l-0.288-1.344
		c-0.225,0.112-0.585,0.248-1.08,0.408c-0.496,0.16-1.168,0.24-2.017,0.24c-1.535,0-2.656-0.408-3.359-1.224
		c-0.705-0.816-1.08-1.984-1.128-3.504h8.712c0.016-0.112,0.027-0.232,0.036-0.36c0.008-0.128,0.012-0.256,0.012-0.384
		c0-2.064-0.452-3.591-1.356-4.584c-0.904-0.992-2.115-1.488-3.636-1.488c-0.688,0-1.356,0.132-2.004,0.396
		s-1.224,0.668-1.728,1.212s-0.912,1.22-1.225,2.028c-0.312,0.808-0.468,1.756-0.468,2.844
		C150.023,13.86,150.136,14.728,150.359,15.52z M151.728,11.932c0.031-0.544,0.14-1.064,0.324-1.56
		c0.184-0.496,0.439-0.932,0.768-1.308s0.712-0.676,1.152-0.9c0.439-0.224,0.939-0.336,1.5-0.336c1.056,0,1.872,0.36,2.447,1.08
		c0.576,0.72,0.881,1.728,0.912,3.024H151.728z"/>
	<path fill="none" d="M165.575,6.76c-0.704,0.184-1.256,0.364-1.656,0.54v11.832h1.561V8.26c0.127-0.063,0.396-0.144,0.804-0.24
		s0.948-0.144,1.62-0.144c0.64,0,1.156,0.036,1.548,0.108c0.392,0.072,0.651,0.14,0.78,0.204l0.312-1.344
		c-0.176-0.08-0.491-0.16-0.948-0.24c-0.455-0.08-0.939-0.12-1.451-0.12C167.136,6.484,166.279,6.576,165.575,6.76z"/>
	<path fill="none" d="M179.963,19.168c0.616-0.152,1.068-0.308,1.356-0.468l-0.336-1.344c-0.209,0.112-0.54,0.244-0.996,0.396
		c-0.456,0.152-1.021,0.228-1.692,0.228c-0.815,0-1.509-0.124-2.075-0.372c-0.568-0.248-1.033-0.592-1.393-1.032
		c-0.36-0.44-0.62-0.968-0.78-1.584c-0.16-0.616-0.239-1.292-0.239-2.028c0-1.632,0.355-2.892,1.067-3.78
		c0.712-0.888,1.756-1.332,3.132-1.332c0.672,0,1.208,0.048,1.608,0.144c0.399,0.096,0.76,0.224,1.08,0.384l0.407-1.344
		c-0.32-0.176-0.771-0.32-1.355-0.432c-0.584-0.112-1.212-0.168-1.884-0.168c-0.88,0-1.673,0.156-2.376,0.468
		c-0.705,0.312-1.305,0.756-1.801,1.332c-0.496,0.576-0.875,1.264-1.14,2.064c-0.264,0.8-0.396,1.688-0.396,2.664
		c0,0.96,0.127,1.836,0.384,2.628c0.256,0.792,0.628,1.473,1.116,2.04c0.487,0.568,1.1,1.004,1.836,1.308
		c0.735,0.304,1.584,0.456,2.544,0.456C178.703,19.396,179.347,19.32,179.963,19.168z"/>
	<path fill="none" d="M183.526,15.52c0.225,0.792,0.584,1.476,1.08,2.052c0.496,0.576,1.129,1.024,1.896,1.344
		s1.695,0.48,2.784,0.48c0.831,0,1.556-0.088,2.172-0.264c0.616-0.176,1.036-0.328,1.26-0.456l-0.288-1.344
		c-0.225,0.112-0.584,0.248-1.08,0.408c-0.496,0.16-1.168,0.24-2.016,0.24c-1.536,0-2.656-0.408-3.36-1.224
		s-1.079-1.984-1.128-3.504h8.712c0.017-0.112,0.028-0.232,0.036-0.36s0.012-0.256,0.012-0.384c0-2.064-0.452-3.591-1.355-4.584
		c-0.904-0.992-2.116-1.488-3.637-1.488c-0.688,0-1.355,0.132-2.004,0.396c-0.647,0.264-1.224,0.668-1.728,1.212
		s-0.912,1.22-1.224,2.028c-0.313,0.808-0.469,1.756-0.469,2.844C183.19,13.86,183.303,14.728,183.526,15.52z M184.896,11.932
		c0.031-0.544,0.139-1.064,0.323-1.56c0.184-0.496,0.44-0.932,0.769-1.308c0.327-0.376,0.711-0.676,1.151-0.9s0.94-0.336,1.5-0.336
		c1.056,0,1.872,0.36,2.448,1.08c0.576,0.72,0.88,1.728,0.912,3.024H184.896z"/>
	<path fill="none" d="M11.87,48.028c1.272-0.88,1.908-2.192,1.908-3.937c0-0.864-0.192-1.64-0.576-2.327
		c-0.384-0.688-1.104-1.232-2.16-1.633c1.28-0.768,1.92-1.815,1.92-3.144c0-0.879-0.18-1.62-0.54-2.22s-0.86-1.084-1.5-1.452
		c-0.64-0.368-1.404-0.628-2.292-0.78s-1.86-0.228-2.916-0.228c-0.784,0-1.632,0.036-2.544,0.108
		c-0.912,0.072-1.752,0.18-2.52,0.324v16.128c0.976,0.208,1.916,0.34,2.82,0.396c0.903,0.055,1.812,0.084,2.724,0.084
		C8.705,49.349,10.598,48.908,11.87,48.028z M6.649,41.884c1.072,0,1.896,0.164,2.472,0.492c0.576,0.328,0.864,0.876,0.864,1.645
		c0,0.863-0.344,1.455-1.032,1.775c-0.688,0.32-1.592,0.48-2.712,0.48c-0.384,0-0.736-0.008-1.056-0.024
		c-0.32-0.016-0.616-0.04-0.888-0.071v-4.297H6.649z M4.297,35.404c0.288-0.032,0.616-0.052,0.984-0.06
		c0.368-0.008,0.712-0.012,1.032-0.012c0.992,0,1.744,0.136,2.256,0.408c0.512,0.272,0.768,0.744,0.768,1.416
		c0,0.657-0.249,1.132-0.744,1.428c-0.496,0.296-1.32,0.444-2.472,0.444H4.297V35.404z"/>
	<path fill="none" d="M24.745,36.724c-0.192-0.08-0.424-0.148-0.696-0.204s-0.544-0.104-0.816-0.144
		c-0.272-0.04-0.544-0.072-0.816-0.096c-0.272-0.024-0.504-0.036-0.696-0.036c-1.072,0-2.044,0.1-2.916,0.3
		c-0.873,0.2-1.628,0.412-2.269,0.636v11.952h3.576v-9.648c0.16-0.048,0.396-0.092,0.708-0.132c0.312-0.04,0.58-0.06,0.804-0.06
		c0.496,0,0.96,0.044,1.392,0.132c0.432,0.088,0.808,0.172,1.128,0.252L24.745,36.724z"/>
	<path fill="none" d="M37.777,40.084c-0.304-0.816-0.728-1.512-1.272-2.088c-0.544-0.576-1.196-1.024-1.956-1.344
		c-0.76-0.32-1.596-0.48-2.508-0.48c-0.896,0-1.724,0.16-2.484,0.48c-0.76,0.32-1.416,0.768-1.968,1.344
		c-0.552,0.576-0.984,1.272-1.296,2.088s-0.468,1.72-0.468,2.712s0.152,1.9,0.456,2.725s0.728,1.527,1.272,2.111
		c0.543,0.584,1.196,1.036,1.956,1.355c0.759,0.32,1.604,0.48,2.532,0.48c0.944,0,1.796-0.16,2.556-0.48
		c0.76-0.319,1.412-0.771,1.956-1.355c0.543-0.584,0.96-1.287,1.248-2.111c0.288-0.824,0.432-1.732,0.432-2.725
		S38.081,40.9,37.777,40.084z M33.925,45.424c-0.44,0.647-1.068,0.972-1.884,0.972s-1.448-0.324-1.896-0.972
		c-0.448-0.647-0.672-1.524-0.672-2.628s0.224-1.972,0.672-2.604c0.448-0.632,1.08-0.948,1.896-0.948s1.444,0.316,1.884,0.948
		c0.44,0.632,0.66,1.5,0.66,2.604S34.365,44.776,33.925,45.424z"/>
	<path fill="none" d="M40.993,49.132h3.576v-9.744c0.224-0.032,0.48-0.06,0.768-0.084c0.288-0.024,0.56-0.036,0.816-0.036
		c0.832,0,1.4,0.24,1.704,0.72c0.304,0.48,0.456,1.296,0.456,2.449v6.695h3.576v-7.128c0-0.864-0.088-1.647-0.264-2.352
		c-0.176-0.704-0.472-1.312-0.888-1.824s-0.98-0.908-1.692-1.188c-0.712-0.28-1.604-0.42-2.676-0.42
		c-1.056,0-2.063,0.076-3.024,0.228c-0.96,0.152-1.744,0.316-2.352,0.492V49.132z"/>
	<path fill="none" d="M64.609,36.508H54.577v2.976h5.376c-0.432,0.512-0.904,1.084-1.416,1.716
		c-0.512,0.633-1.028,1.283-1.548,1.955c-0.521,0.673-1.017,1.341-1.488,2.005c-0.472,0.664-0.876,1.284-1.212,1.86v2.111h10.44
		v-2.977h-6.108c0.465-0.672,0.982-1.367,1.551-2.088c0.569-0.719,1.134-1.407,1.695-2.063c0.562-0.655,1.087-1.256,1.576-1.8
		s0.877-0.976,1.166-1.296V36.508z"/>
	<path fill="none" d="M66.565,45.508c0.264,0.8,0.672,1.492,1.224,2.076s1.248,1.044,2.088,1.38s1.828,0.504,2.964,0.504
		c0.448,0,0.896-0.023,1.344-0.072c0.448-0.047,0.868-0.107,1.26-0.18c0.392-0.072,0.748-0.156,1.068-0.252
		c0.32-0.096,0.576-0.191,0.768-0.288l-0.48-2.903c-0.4,0.176-0.916,0.324-1.548,0.443c-0.632,0.12-1.276,0.18-1.932,0.18
		c-1.024,0-1.84-0.215-2.448-0.647c-0.608-0.433-0.952-1.017-1.032-1.752h8.112c0.016-0.192,0.032-0.412,0.048-0.66
		c0.016-0.248,0.024-0.476,0.024-0.685c0-2.127-0.52-3.739-1.56-4.835c-1.04-1.096-2.456-1.644-4.248-1.644
		c-0.768,0-1.516,0.144-2.244,0.432s-1.372,0.712-1.932,1.272s-1.012,1.26-1.356,2.1c-0.344,0.84-0.516,1.82-0.516,2.94
		C66.169,43.845,66.301,44.708,66.565,45.508z M69.841,41.548c0.048-0.304,0.124-0.604,0.229-0.9
		c0.104-0.296,0.252-0.556,0.444-0.78s0.432-0.404,0.72-0.54c0.288-0.136,0.632-0.204,1.032-0.204c0.416,0,0.764,0.072,1.044,0.216
		c0.28,0.144,0.512,0.328,0.696,0.552s0.32,0.48,0.408,0.768c0.088,0.288,0.14,0.584,0.156,0.888H69.841z"/>
	<path fill="none" d="M96.373,33.652c-1.161-0.864-2.884-1.296-5.172-1.296c-0.656,0-1.372,0.036-2.148,0.108
		c-0.776,0.072-1.452,0.188-2.028,0.348v16.32h1.632v-6.72h2.688c0.512,0,1.024-0.024,1.536-0.072
		c0.288,0.384,0.624,0.832,1.008,1.345c0.384,0.512,0.78,1.067,1.188,1.668c0.408,0.6,0.808,1.22,1.2,1.859
		c0.392,0.641,0.756,1.28,1.092,1.92h1.752c-0.288-0.64-0.641-1.312-1.056-2.016c-0.417-0.704-0.84-1.381-1.272-2.028
		c-0.432-0.647-0.852-1.243-1.26-1.788c-0.408-0.543-0.74-0.976-0.996-1.296c1.071-0.319,1.936-0.84,2.592-1.56
		c0.656-0.72,0.984-1.704,0.984-2.952C98.113,35.796,97.533,34.516,96.373,33.652z M93.253,33.928
		c0.6,0.104,1.132,0.296,1.596,0.576c0.464,0.28,0.84,0.66,1.128,1.14c0.288,0.48,0.432,1.088,0.432,1.824
		c0,0.8-0.144,1.432-0.432,1.896c-0.288,0.464-0.68,0.82-1.176,1.068c-0.496,0.248-1.08,0.408-1.752,0.48
		c-0.672,0.072-1.384,0.107-2.136,0.107h-2.256v-7.08c0.304-0.032,0.684-0.068,1.14-0.108s0.988-0.06,1.596-0.06
		C92.033,33.772,92.653,33.824,93.253,33.928z"/>
	<path fill="none" d="M101.353,45.521c0.224,0.791,0.584,1.476,1.08,2.051c0.496,0.576,1.128,1.025,1.896,1.345
		s1.696,0.479,2.784,0.479c0.832,0,1.556-0.088,2.171-0.264c0.616-0.176,1.036-0.328,1.261-0.456l-0.288-1.344
		c-0.225,0.112-0.584,0.248-1.08,0.407c-0.496,0.16-1.168,0.24-2.016,0.24c-1.536,0-2.656-0.408-3.36-1.224s-1.08-1.983-1.128-3.504
		h8.712c0.016-0.112,0.028-0.231,0.036-0.36c0.008-0.127,0.012-0.256,0.012-0.384c0-2.064-0.452-3.591-1.355-4.584
		c-0.904-0.992-2.116-1.488-3.636-1.488c-0.688,0-1.356,0.132-2.004,0.396c-0.647,0.264-1.224,0.668-1.728,1.212
		c-0.504,0.544-0.912,1.22-1.224,2.028c-0.312,0.808-0.468,1.756-0.468,2.844C101.017,43.86,101.128,44.728,101.353,45.521z
		 M102.721,41.933c0.032-0.545,0.14-1.064,0.324-1.561c0.184-0.496,0.439-0.932,0.768-1.308s0.712-0.676,1.152-0.9
		c0.44-0.224,0.939-0.336,1.5-0.336c1.056,0,1.872,0.36,2.448,1.08c0.576,0.72,0.879,1.728,0.912,3.024H102.721z"/>
	<path fill="none" d="M118.272,48.052c-0.32-0.048-0.596-0.104-0.828-0.168c-0.232-0.063-0.42-0.164-0.564-0.3
		c-0.144-0.136-0.252-0.319-0.323-0.552c-0.072-0.232-0.108-0.54-0.108-0.924V30.508l-1.56,0.288v15.359
		c0,0.593,0.067,1.085,0.204,1.477c0.136,0.393,0.336,0.713,0.6,0.96c0.264,0.249,0.592,0.433,0.984,0.552
		c0.392,0.121,0.852,0.188,1.38,0.205L118.272,48.052z"/>
	<path fill="none" d="M123.612,47.872c-0.393-0.088-0.729-0.229-1.008-0.42c-0.28-0.192-0.496-0.447-0.648-0.768
		s-0.228-0.713-0.228-1.177c0-0.528,0.111-0.952,0.336-1.272c0.224-0.319,0.512-0.571,0.864-0.756
		c0.352-0.184,0.735-0.303,1.151-0.359s0.816-0.084,1.2-0.084c0.672,0,1.2,0.044,1.584,0.132s0.664,0.172,0.84,0.252v4.368
		c-0.32,0.064-0.708,0.116-1.164,0.156c-0.456,0.039-0.988,0.06-1.596,0.06C124.448,48.004,124.004,47.96,123.612,47.872z
		 M122.748,36.604c-0.567,0.112-0.988,0.232-1.26,0.36l0.216,1.368c0.208-0.08,0.536-0.184,0.984-0.312
		c0.447-0.128,1.128-0.192,2.04-0.192c0.64,0,1.155,0.1,1.548,0.3c0.392,0.2,0.695,0.464,0.912,0.792
		c0.216,0.328,0.355,0.696,0.42,1.104c0.063,0.408,0.096,0.828,0.096,1.26v0.768c-0.064-0.031-0.18-0.068-0.348-0.107
		c-0.168-0.04-0.369-0.08-0.6-0.12c-0.232-0.04-0.473-0.072-0.721-0.097c-0.248-0.023-0.484-0.035-0.708-0.035
		c-0.752,0-1.448,0.072-2.088,0.216s-1.192,0.372-1.656,0.684s-0.824,0.708-1.079,1.188c-0.257,0.479-0.385,1.056-0.385,1.728
		c0,0.704,0.116,1.3,0.348,1.788c0.232,0.488,0.553,0.889,0.961,1.2s0.888,0.54,1.439,0.685c0.553,0.144,1.156,0.215,1.813,0.215
		c0.512,0,1.012-0.02,1.5-0.06c0.487-0.04,0.932-0.093,1.332-0.155c0.399-0.064,0.752-0.125,1.056-0.181s0.536-0.108,0.696-0.156
		V41.02c0-0.655-0.08-1.263-0.24-1.824c-0.16-0.56-0.416-1.044-0.768-1.452c-0.353-0.408-0.813-0.728-1.381-0.96
		s-1.26-0.348-2.076-0.348C124,36.436,123.315,36.492,122.748,36.604z"/>
	<path fill="none" d="M134.712,32.788l-1.561,0.288V44.5c0,0.832,0.064,1.552,0.192,2.16s0.349,1.116,0.66,1.524
		c0.312,0.407,0.728,0.711,1.248,0.912c0.52,0.199,1.164,0.299,1.933,0.299c0.655,0,1.264-0.092,1.823-0.275
		s0.952-0.348,1.177-0.492l-0.385-1.296c-0.225,0.128-0.536,0.269-0.936,0.42c-0.4,0.152-0.929,0.228-1.584,0.228
		c-0.385,0-0.736-0.039-1.057-0.119s-0.592-0.24-0.815-0.48c-0.225-0.24-0.396-0.58-0.517-1.02c-0.119-0.44-0.18-1.012-0.18-1.717
		v-6.6h4.944v-1.32h-4.944V32.788z"/>
	<path fill="none" d="M144.096,36.724h-1.56v12.408h1.56V36.724z M144.12,32.104c-0.225-0.216-0.496-0.324-0.816-0.324
		s-0.592,0.108-0.816,0.324c-0.224,0.216-0.336,0.508-0.336,0.876c0,0.368,0.112,0.66,0.336,0.876
		c0.225,0.216,0.496,0.324,0.816,0.324s0.592-0.108,0.816-0.324c0.224-0.216,0.336-0.508,0.336-0.876
		C144.456,32.612,144.344,32.32,144.12,32.104z"/>
	<path fill="none" d="M158.388,40.276c-0.28-0.8-0.672-1.484-1.176-2.052s-1.101-1.008-1.788-1.32
		c-0.688-0.312-1.448-0.468-2.28-0.468s-1.592,0.156-2.279,0.468c-0.688,0.312-1.285,0.752-1.789,1.32s-0.896,1.252-1.176,2.052
		c-0.279,0.8-0.42,1.688-0.42,2.665c0,0.976,0.141,1.863,0.42,2.664c0.28,0.8,0.672,1.479,1.176,2.039
		c0.504,0.561,1.101,0.996,1.789,1.309c0.688,0.313,1.447,0.468,2.279,0.468s1.592-0.155,2.28-0.468
		c0.688-0.313,1.284-0.748,1.788-1.309c0.504-0.56,0.896-1.239,1.176-2.039c0.279-0.801,0.42-1.688,0.42-2.664
		C158.808,41.964,158.667,41.076,158.388,40.276z M156.071,46.636c-0.72,0.912-1.695,1.368-2.928,1.368s-2.208-0.456-2.928-1.368
		c-0.721-0.912-1.08-2.144-1.08-3.695c0-1.553,0.359-2.788,1.08-3.708c0.72-0.92,1.695-1.38,2.928-1.38s2.208,0.46,2.928,1.38
		c0.721,0.92,1.08,2.156,1.08,3.708C157.151,44.492,156.792,45.724,156.071,46.636z"/>
	<path fill="none" d="M162.191,49.132h1.56V38.236c0.16-0.063,0.508-0.136,1.045-0.216c0.535-0.08,1.172-0.12,1.908-0.12
		c0.688,0,1.26,0.084,1.715,0.252c0.457,0.168,0.824,0.444,1.104,0.828s0.479,0.88,0.601,1.488c0.119,0.608,0.18,1.353,0.18,2.232
		v6.432h1.56v-6.936c0-0.848-0.08-1.624-0.239-2.328c-0.16-0.704-0.429-1.308-0.805-1.812c-0.376-0.504-0.88-0.892-1.512-1.164
		c-0.633-0.272-1.42-0.408-2.364-0.408c-1.136,0-2.097,0.081-2.88,0.24c-0.784,0.16-1.408,0.304-1.872,0.432V49.132z"/>
	<path fill="none" d="M177.083,47.933c-0.376-0.064-0.7-0.141-0.972-0.229c-0.272-0.088-0.488-0.168-0.648-0.24
		s-0.264-0.123-0.312-0.156l-0.408,1.416c0.191,0.096,0.576,0.236,1.152,0.42s1.407,0.276,2.496,0.276
		c1.455,0,2.604-0.288,3.443-0.864s1.26-1.424,1.26-2.543c0-0.592-0.104-1.084-0.312-1.477s-0.479-0.729-0.816-1.008
		c-0.336-0.28-0.724-0.52-1.163-0.719c-0.441-0.199-0.9-0.395-1.381-0.586c-0.464-0.191-0.876-0.365-1.236-0.525
		c-0.359-0.158-0.664-0.33-0.912-0.516c-0.248-0.184-0.436-0.396-0.563-0.637c-0.128-0.24-0.192-0.529-0.192-0.866
		s0.072-0.621,0.217-0.854c0.144-0.232,0.336-0.425,0.576-0.577c0.239-0.152,0.516-0.265,0.828-0.336
		c0.312-0.072,0.644-0.108,0.995-0.108c0.88,0,1.548,0.08,2.005,0.24c0.455,0.16,0.779,0.288,0.972,0.384l0.36-1.392
		c-0.225-0.112-0.613-0.24-1.164-0.384c-0.553-0.144-1.253-0.216-2.101-0.216c-1.328,0-2.372,0.312-3.132,0.936
		s-1.141,1.44-1.141,2.448c0,0.528,0.097,0.976,0.289,1.344c0.191,0.368,0.447,0.685,0.768,0.948s0.688,0.496,1.104,0.695
		c0.416,0.201,0.855,0.396,1.32,0.588c0.576,0.24,1.06,0.449,1.452,0.625c0.392,0.176,0.708,0.359,0.948,0.551
		c0.24,0.193,0.411,0.408,0.516,0.648c0.104,0.24,0.156,0.528,0.156,0.864c0,0.704-0.293,1.204-0.876,1.5
		c-0.585,0.296-1.324,0.444-2.22,0.444C177.896,48.028,177.459,47.996,177.083,47.933z"/>
	<path fill="none" d="M187.679,49.132v-10.68c0.064-0.032,0.204-0.08,0.42-0.144c0.217-0.064,0.46-0.124,0.732-0.18
		c0.271-0.056,0.564-0.108,0.876-0.156c0.312-0.048,0.604-0.072,0.876-0.072c0.703,0,1.287,0.084,1.752,0.252
		c0.464,0.168,0.836,0.444,1.115,0.828c0.28,0.384,0.48,0.88,0.601,1.488c0.12,0.608,0.181,1.353,0.181,2.232v6.432h1.56v-6.936
		c0-0.848-0.076-1.624-0.228-2.328c-0.152-0.704-0.421-1.308-0.805-1.812c-0.384-0.504-0.896-0.892-1.536-1.164
		s-1.44-0.408-2.399-0.408c-0.528,0-1.057,0.052-1.584,0.156c-0.528,0.104-1.049,0.252-1.561,0.444v-6.576l-1.56,0.288v18.336
		H187.679z"/>
	<path fill="none" d="M201.335,36.724h-1.561v12.408h1.561V36.724z M201.358,32.104c-0.225-0.216-0.496-0.324-0.816-0.324
		s-0.592,0.108-0.815,0.324s-0.336,0.508-0.336,0.876c0,0.368,0.112,0.66,0.336,0.876s0.495,0.324,0.815,0.324
		s0.592-0.108,0.816-0.324s0.336-0.508,0.336-0.876C201.694,32.612,201.583,32.32,201.358,32.104z"/>
	<path fill="none" d="M207.022,38.236c0.24-0.08,0.596-0.156,1.068-0.228c0.472-0.072,1.092-0.108,1.859-0.108
		c1.344,0,2.424,0.436,3.24,1.308s1.225,2.124,1.225,3.756c0,0.688-0.072,1.34-0.217,1.956c-0.144,0.616-0.376,1.151-0.695,1.608
		c-0.32,0.455-0.74,0.815-1.26,1.08c-0.521,0.264-1.164,0.396-1.933,0.396c-0.368,0-0.72-0.036-1.056-0.108
		c-0.336-0.071-0.648-0.164-0.937-0.275s-0.54-0.232-0.756-0.36s-0.396-0.247-0.54-0.36V38.236z M207.022,48.412
		c0.271,0.208,0.708,0.429,1.309,0.659c0.6,0.232,1.308,0.349,2.123,0.349c0.896,0,1.692-0.16,2.389-0.479
		c0.695-0.32,1.283-0.764,1.764-1.332s0.844-1.248,1.092-2.041c0.248-0.791,0.372-1.659,0.372-2.604
		c0-1.008-0.147-1.911-0.444-2.712c-0.296-0.8-0.712-1.479-1.248-2.04c-0.535-0.56-1.176-0.988-1.92-1.284
		c-0.743-0.296-1.571-0.444-2.483-0.444c-1.104,0-2.017,0.072-2.736,0.216c-0.72,0.144-1.312,0.296-1.776,0.456v16.416h1.561V48.412
		z"/>
	<path fill="none" d="M5.858,70.304c0.495-0.242,0.963-0.508,1.403-0.796c0.439-0.288,0.828-0.616,1.164-0.983
		c0.336-0.368,0.608-0.789,0.816-1.26c0.208-0.473,0.313-1.004,0.313-1.597c0-0.495-0.088-0.96-0.264-1.392
		c-0.176-0.433-0.424-0.805-0.744-1.116c-0.32-0.312-0.72-0.56-1.2-0.744c-0.48-0.184-1.017-0.276-1.608-0.276
		c-0.576,0-1.112,0.088-1.608,0.264c-0.496,0.177-0.924,0.437-1.284,0.781c-0.36,0.344-0.641,0.764-0.84,1.26
		c-0.2,0.496-0.3,1.056-0.3,1.68c0,0.641,0.14,1.271,0.42,1.896c0.28,0.623,0.759,1.278,1.437,1.963
		c-0.454,0.195-0.905,0.445-1.353,0.748c-0.448,0.305-0.84,0.652-1.176,1.045c-0.336,0.393-0.604,0.84-0.804,1.344
		c-0.2,0.504-0.3,1.076-0.3,1.716c0,0.513,0.088,1.032,0.264,1.56c0.176,0.528,0.469,1.013,0.877,1.453
		c0.409,0.439,0.946,0.8,1.611,1.08c0.665,0.279,1.486,0.42,2.464,0.42c1.105,0,2.103-0.221,2.993-0.66
		c0.89-0.44,1.638-1.045,2.244-1.813c0.412,0.416,0.774,0.805,1.088,1.164c0.313,0.359,0.583,0.725,0.809,1.092h1.762
		c-0.272-0.496-0.644-1.016-1.116-1.561c-0.472-0.543-1.03-1.143-1.674-1.795c0.532-0.675,0.934-1.412,1.206-2.213
		c0.272-0.799,0.448-1.592,0.528-2.375l-1.344-0.168c-0.081,0.672-0.225,1.34-0.432,2.004c-0.208,0.664-0.511,1.26-0.908,1.787
		L5.858,70.304z M3.481,77.692c-0.448-0.192-0.808-0.436-1.08-0.732c-0.272-0.296-0.472-0.632-0.6-1.008
		c-0.128-0.376-0.192-0.748-0.192-1.116c0-0.592,0.088-1.104,0.264-1.536c0.176-0.432,0.404-0.804,0.684-1.115
		c0.279-0.313,0.596-0.56,0.948-0.742c0.352-0.183,0.692-0.344,1.02-0.484l4.929,4.98c-0.495,0.657-1.105,1.162-1.833,1.514
		c-0.729,0.352-1.556,0.527-2.484,0.527C4.481,77.979,3.929,77.884,3.481,77.692z M7.226,67.935
		c-0.561,0.559-1.317,1.043-2.271,1.452c-0.614-0.623-1.045-1.211-1.293-1.763c-0.249-0.553-0.372-1.107-0.372-1.668
		c0-0.768,0.212-1.372,0.636-1.813c0.424-0.439,1.044-0.66,1.86-0.66c0.672,0,1.22,0.212,1.644,0.635
		c0.423,0.423,0.636,0.945,0.636,1.567C8.065,66.627,7.785,67.377,7.226,67.935z"/>
	<path fill="none" d="M30.649,79.384c0.544-0.072,1.023-0.164,1.44-0.275c0.416-0.112,0.76-0.221,1.032-0.324
		s0.464-0.195,0.576-0.276l-0.456-1.392c-0.368,0.208-0.908,0.412-1.62,0.611c-0.712,0.201-1.596,0.301-2.652,0.301
		c-0.96,0-1.812-0.168-2.556-0.504c-0.744-0.336-1.372-0.816-1.884-1.44c-0.512-0.624-0.9-1.38-1.164-2.269
		c-0.264-0.887-0.396-1.883-0.396-2.987c0-1.071,0.132-2.048,0.396-2.929c0.264-0.879,0.66-1.639,1.188-2.279
		c0.528-0.64,1.18-1.137,1.956-1.488c0.776-0.352,1.684-0.527,2.724-0.527c0.912,0,1.676,0.115,2.292,0.348
		c0.616,0.232,1.124,0.468,1.524,0.708l0.528-1.416c-0.144-0.097-0.352-0.204-0.624-0.324s-0.6-0.239-0.984-0.36
		c-0.384-0.119-0.832-0.219-1.344-0.3c-0.512-0.079-1.08-0.12-1.704-0.12c-1.008,0-1.976,0.188-2.904,0.564
		s-1.744,0.932-2.448,1.668s-1.269,1.645-1.692,2.725c-0.424,1.079-0.636,2.315-0.636,3.707c0,1.393,0.196,2.629,0.588,3.709
		c0.392,1.079,0.928,1.987,1.608,2.723c0.68,0.736,1.479,1.297,2.4,1.681c0.92,0.384,1.916,0.576,2.988,0.576
		C29.497,79.492,30.105,79.456,30.649,79.384z"/>
	<path fill="none" d="M45.877,63.651c-1.16-0.863-2.884-1.295-5.172-1.295c-0.656,0-1.372,0.035-2.148,0.107
		c-0.776,0.072-1.452,0.188-2.028,0.348v16.32h1.632v-6.72h2.688c0.512,0,1.024-0.024,1.536-0.072
		c0.288,0.384,0.624,0.832,1.008,1.345c0.384,0.512,0.78,1.067,1.188,1.668c0.408,0.6,0.808,1.22,1.2,1.859
		c0.392,0.641,0.756,1.28,1.092,1.92h1.752c-0.288-0.64-0.64-1.312-1.056-2.016c-0.417-0.704-0.84-1.381-1.272-2.028
		c-0.432-0.647-0.852-1.243-1.26-1.788c-0.408-0.543-0.74-0.976-0.996-1.296c1.072-0.319,1.936-0.84,2.592-1.56
		c0.656-0.721,0.984-1.705,0.984-2.952C47.617,65.796,47.037,64.517,45.877,63.651z M42.757,63.929
		c0.6,0.104,1.132,0.295,1.596,0.575c0.464,0.28,0.84,0.66,1.128,1.14c0.288,0.48,0.432,1.089,0.432,1.824
		c0,0.801-0.144,1.432-0.432,1.896c-0.288,0.464-0.68,0.82-1.176,1.068c-0.496,0.248-1.08,0.407-1.752,0.479
		c-0.672,0.071-1.384,0.108-2.136,0.108h-2.256v-7.08c0.304-0.032,0.684-0.068,1.14-0.108c0.456-0.04,0.988-0.06,1.596-0.06
		C41.537,63.772,42.157,63.824,42.757,63.929z"/>
	<path fill="none" d="M60.313,76.731c0.16-0.399,0.388-0.928,0.684-1.584c0.296-0.655,0.628-1.371,0.996-2.147
		c0.368-0.776,0.744-1.575,1.128-2.399s0.752-1.597,1.104-2.316c0.352-0.721,0.664-1.352,0.936-1.896
		c0.271-0.543,0.472-0.928,0.6-1.152c0.208,2.001,0.372,4.173,0.492,6.517c0.12,2.345,0.228,4.804,0.324,7.38h1.656
		c-0.144-3.023-0.308-5.92-0.492-8.688c-0.185-2.768-0.412-5.416-0.684-7.944h-1.368c-0.481,0.8-0.994,1.724-1.539,2.772
		c-0.545,1.048-1.086,2.136-1.624,3.264c-0.537,1.128-1.058,2.24-1.563,3.336c-0.505,1.096-0.95,2.084-1.335,2.964
		c-0.385-0.88-0.83-1.868-1.334-2.964c-0.505-1.096-1.026-2.208-1.563-3.336c-0.537-1.128-1.078-2.216-1.623-3.264
		c-0.545-1.049-1.058-1.973-1.539-2.772h-1.44c-0.272,2.528-0.5,5.177-0.684,7.944c-0.185,2.768-0.348,5.664-0.492,8.688h1.608
		c0.096-2.576,0.204-5.035,0.324-7.38c0.12-2.344,0.284-4.516,0.492-6.517c0.128,0.225,0.329,0.609,0.603,1.152
		c0.273,0.545,0.587,1.176,0.94,1.896c0.353,0.72,0.723,1.492,1.109,2.316c0.385,0.824,0.763,1.623,1.133,2.399s0.703,1.492,1,2.147
		c0.297,0.656,0.526,1.185,0.687,1.584H60.313z"/>
</g>
</svg>
