<?xml version="1.0" encoding="utf-8"?>
<!-- Generator: Adobe Illustrator 16.0.0, SVG Export Plug-In . SVG Version: 6.00 Build 0)  -->
<!DOCTYPE svg PUBLIC "-//W3C//DTD SVG 1.1//EN" "http://www.w3.org/Graphics/SVG/1.1/DTD/svg11.dtd">
<svg version="1.1" id="Layer_1" xmlns="http://www.w3.org/2000/svg" xmlns:xlink="http://www.w3.org/1999/xlink" x="0px" y="0px"
	 width="520px" height="116px" viewBox="0 0 520 116" enable-background="new 0 0 520 116" xml:space="preserve">
<path fill="#FFFFFF" d="M8.782,2.678c-1.066,7.345-2.051,15.567-2.954,24.668c-0.906,9.101-1.704,18.575-2.396,28.419
	c-0.693,9.847-1.332,19.719-1.916,29.617C0.931,95.28,0.425,104.597,0,113.322h24.269c0.319-10.749,0.743-22.458,1.277-35.124
	c0.531-12.667,1.329-25.439,2.395-38.319c1.921,4.471,4.057,9.42,6.406,14.848c2.348,5.43,4.67,10.857,6.966,16.285
	c2.295,5.429,4.512,10.618,6.647,15.566c2.136,4.951,3.949,9.182,5.446,12.694h17.402c1.494-3.513,3.311-7.743,5.446-12.694
	c2.136-4.948,4.351-10.138,6.646-15.566c2.295-5.428,4.618-10.855,6.968-16.285c2.348-5.428,4.483-10.377,6.406-14.848
	c1.063,12.88,1.861,25.652,2.396,38.319c0.53,12.666,0.958,24.375,1.276,35.124h24.269c-0.427-8.726-0.934-18.042-1.517-27.94
	c-0.587-9.898-1.226-19.771-1.916-29.617c-0.693-9.844-1.492-19.318-2.396-28.419c-0.905-9.101-1.891-17.323-2.953-24.668H92.762
	c-1.921,3.514-4.136,7.852-6.643,13.013c-2.51,5.165-5.125,10.752-7.847,16.765c-2.722,6.015-5.415,12.162-8.082,18.44
	c-2.67,6.281-5.177,12.188-7.523,17.722c-2.351-5.533-4.857-11.44-7.524-17.722c-2.67-6.278-5.363-12.426-8.085-18.44
	c-2.722-6.013-5.337-11.6-7.844-16.765c-2.51-5.161-4.723-9.499-6.644-13.013H8.782z"/>
<path fill="#FFFFFF" d="M165.325,43.472c1.329-4.417,3.245-8.195,5.747-11.337c2.5-3.138,5.561-5.587,9.181-7.345
	c3.617-1.756,7.769-2.634,12.453-2.634c4.575,0,8.702,0.854,12.374,2.555c3.672,1.704,6.758,4.127,9.26,7.265
	c2.5,3.141,4.416,6.921,5.748,11.336c1.329,4.418,1.995,9.339,1.995,14.769c0,5.428-0.666,10.325-1.995,14.688
	c-1.332,4.365-3.248,8.119-5.748,11.257c-2.502,3.14-5.588,5.563-9.26,7.264c-3.672,1.703-7.799,2.555-12.374,2.555
	c-4.685,0-8.836-0.852-12.453-2.555c-3.62-1.701-6.681-4.124-9.181-7.264c-2.502-3.138-4.418-6.892-5.747-11.257
	c-1.332-4.362-1.996-9.26-1.996-14.688C163.329,52.759,163.993,47.89,165.325,43.472z M243.478,33.093
	c-2.874-7.185-6.813-13.224-11.814-18.121c-5.005-4.895-10.856-8.566-17.563-11.017c-6.706-2.447-13.838-3.672-21.395-3.672
	c-7.344,0-14.344,1.225-20.995,3.672c-6.653,2.45-12.508,6.122-17.563,11.017c-5.057,4.897-9.075,10.937-12.054,18.121
	c-2.981,7.186-4.471,15.515-4.471,24.987c0,9.474,1.438,17.802,4.311,24.985c2.874,7.186,6.811,13.2,11.814,18.042
	c5.003,4.845,10.857,8.489,17.563,10.938c6.705,2.445,13.835,3.672,21.394,3.672c7.769,0,15.033-1.227,21.793-3.672
	c6.759-2.448,12.586-6.093,17.483-10.938c4.895-4.842,8.754-10.856,11.575-18.042c2.819-7.184,4.231-15.512,4.231-24.985
	C247.789,48.607,246.352,40.278,243.478,33.093z"/>
<path fill="#FFFFFF" d="M276.925,92.327c-4.844-1.438-8.916-3.06-12.213-4.871l-7.025,19.798c1.489,0.854,3.325,1.756,5.508,2.715
	c2.181,0.957,4.79,1.863,7.823,2.713c3.034,0.852,6.52,1.571,10.458,2.156c3.937,0.584,8.355,0.879,13.252,0.879
	c14.581,0,25.49-2.848,32.729-8.543c7.236-5.692,10.856-13.703,10.856-24.028c0-5.32-0.692-9.845-2.075-13.57
	c-1.385-3.725-3.487-6.97-6.306-9.739c-2.822-2.767-6.361-5.189-10.618-7.264c-4.259-2.076-9.26-4.177-15.008-6.308
	c-2.769-0.957-5.296-1.888-7.583-2.793c-2.291-0.903-4.312-1.916-6.067-3.034c-1.757-1.117-3.113-2.368-4.071-3.753
	c-0.958-1.382-1.438-3.085-1.438-5.107c0-3.406,1.302-5.933,3.911-7.585c2.608-1.648,6.891-2.474,12.854-2.474
	c5.321,0,9.872,0.612,13.65,1.836c3.777,1.225,7.209,2.634,10.299,4.23l7.184-19.639c-3.512-1.915-7.982-3.672-13.411-5.268
	c-5.429-1.598-11.869-2.396-19.318-2.396c-6.282,0-11.922,0.773-16.924,2.315c-5.004,1.544-9.26,3.752-12.772,6.626
	c-3.514,2.873-6.228,6.361-8.143,10.457c-1.916,4.1-2.874,8.702-2.874,13.811c0,5.109,0.902,9.447,2.714,13.013
	c1.809,3.566,4.151,6.6,7.025,9.1c2.874,2.503,6.119,4.578,9.738,6.228c3.617,1.65,7.237,3.112,10.857,4.391
	c8.302,2.768,14.154,5.348,17.563,7.743c3.404,2.396,5.109,5.402,5.109,9.02c0,1.706-0.268,3.249-0.799,4.631
	c-0.533,1.384-1.491,2.582-2.874,3.592c-1.384,1.014-3.22,1.811-5.508,2.396c-2.29,0.587-5.189,0.879-8.701,0.879
	C287.702,94.482,281.768,93.764,276.925,92.327z"/>
<path fill="#FFFFFF" d="M431.871,113.322V92.406h-53.485V65.744h44.226V45.308h-44.226V23.594h49.813V2.678h-74.72v110.645H431.871z
	"/>
<path fill="#FFFFFF" d="M458.612,92.327c-4.845-1.438-8.917-3.06-12.214-4.871l-7.025,19.798c1.49,0.854,3.326,1.756,5.509,2.715
	c2.18,0.957,4.79,1.863,7.823,2.713c3.033,0.852,6.52,1.571,10.458,2.156c3.936,0.584,8.354,0.879,13.251,0.879
	c14.582,0,25.49-2.848,32.73-8.543C516.381,101.481,520,93.471,520,83.146c0-5.32-0.692-9.845-2.075-13.57
	c-1.384-3.725-3.486-6.97-6.306-9.739c-2.821-2.767-6.361-5.189-10.617-7.264c-4.259-2.076-9.261-4.177-15.009-6.308
	c-2.769-0.957-5.295-1.888-7.583-2.793c-2.29-0.903-4.312-1.916-6.067-3.034c-1.756-1.117-3.112-2.368-4.071-3.753
	c-0.958-1.382-1.437-3.085-1.437-5.107c0-3.406,1.302-5.933,3.911-7.585c2.607-1.648,6.89-2.474,12.853-2.474
	c5.322,0,9.872,0.612,13.65,1.836c3.777,1.225,7.21,2.634,10.299,4.23l7.185-19.639c-3.513-1.915-7.982-3.672-13.412-5.268
	c-5.429-1.598-11.87-2.396-19.318-2.396c-6.281,0-11.922,0.773-16.923,2.315c-5.005,1.544-9.261,3.752-12.773,6.626
	c-3.513,2.873-6.228,6.361-8.143,10.457c-1.916,4.1-2.873,8.702-2.873,13.811c0,5.109,0.902,9.447,2.713,13.013
	c1.81,3.566,4.151,6.6,7.026,9.1c2.872,2.503,6.119,4.578,9.738,6.228c3.617,1.65,7.236,3.112,10.856,4.391
	c8.302,2.768,14.154,5.348,17.563,7.743c3.404,2.396,5.108,5.402,5.108,9.02c0,1.706-0.268,3.249-0.798,4.631
	c-0.534,1.384-1.492,2.582-2.874,3.592c-1.385,1.014-3.221,1.811-5.508,2.396c-2.29,0.587-5.19,0.879-8.702,0.879
	C469.389,94.482,463.454,93.764,458.612,92.327z"/>
</svg>
